<?xml version="1.0" encoding="utf-8"?>
<!-- Generator: Adobe Illustrator 23.0.3, SVG Export Plug-In . SVG Version: 6.00 Build 0)  -->
<svg version="1.1" xmlns="http://www.w3.org/2000/svg" xmlns:xlink="http://www.w3.org/1999/xlink" x="0px" y="0px"
	 viewBox="0 0 750 500" style="enable-background:new 0 0 750 500;" xml:space="preserve">
<style type="text/css">
	.st0{display:none;}
	.st1{display:inline;fill:#FFFFFF;}
	.st2{fill:#E7FAF9;}
	.st3{fill:#FBEED1;}
	.st4{fill:#6CA8BC;}
	.st5{fill:#EBA58E;}
	.st6{fill:#DD8C76;}
	.st7{fill:#5297F4;}
	.st8{fill:#3985D8;}
	.st9{fill:#5DABFF;}
	.st10{fill:#422C4F;}
	.st11{fill:#FFFFFF;}
	.st12{fill:#A34262;}
	.st13{fill:#DF4268;}
	.st14{fill:#495375;}
	.st15{fill:#C7D2D7;}
	.st16{fill:#99A3B0;}
	.st17{fill:#F2C8C2;}
	.st18{fill:#E36E90;}
	.st19{fill:#F0BF6C;}
	.st20{fill:#EBA25D;}
	.st21{fill:#CC6164;}
	.st22{font-family:'Montserrat-BlackItalic';}
	.st23{font-size:20.1199px;}
	.st24{fill:#454F6B;}
	.st25{fill:#F2C9AD;}
	.st26{fill:#81D3CF;}
	.st27{opacity:0.3;fill:#422C4F;}
	.st28{fill:#6BC5FF;}
	.st29{fill:url(#SVGID_1_);}
	.st30{fill:url(#SVGID_2_);}
	.st31{fill:url(#SVGID_3_);}
	.st32{fill:url(#SVGID_4_);}
	.st33{fill:url(#SVGID_5_);}
	.st34{fill:url(#SVGID_6_);}
	.st35{fill:url(#SVGID_7_);}
	.st36{fill:url(#SVGID_8_);}
	.st37{fill:url(#SVGID_9_);}
	.st38{fill:url(#SVGID_10_);}
	.st39{fill:url(#SVGID_11_);}
	.st40{fill:url(#SVGID_12_);}
	.st41{fill:url(#SVGID_13_);}
</style>
<g id="BACKGROUND" class="st0">
	<rect class="st1" width="750" height="500"/>
</g>
<g id="OBJECT">
	<g>
		<g>
			<path class="st2" d="M668.9,407.6H67.2C58.8,397,68,377.9,79,369.9c11-8,24.8-12.2,33.8-22.3c14.2-15.8,11.8-39.8,10.5-61
				c-1.3-21.2,1.6-46.7,20.4-56.6c17.3-9.2,39.1,0,57.9-5.5c18.6-5.5,29.8-23.7,41.1-39.4c38-52.4,96.3-89.6,159.8-101.9
				c27.3-5.3,56.5-6,82.2,4.7s47,34.8,48.5,62.6c1.1,19.7-7.5,38.4-11.8,57.6c-4.3,19.2-3,42.5,12.7,54.4c12.7,9.7,30.1,8.6,46,10.6
				c15.8,2,34,11.2,34.4,27.1c0.5,17.3-20.7,31.2-16.4,48c2.7,10.2,13.9,15.7,24.3,17.5c10.4,1.8,21.5,1.5,31,6.2
				C663,376.7,674.9,398.9,668.9,407.6z"/>
			<g>
				<path class="st3" d="M259.9,131.8H102.3c-1.6-4,1.8-8.4,5.7-10c3.9-1.7,8.4-1.2,12.6-0.9c4.2,0.4,8.7,0.6,12.5-1.4
					c7.3-3.9,8.2-13.6,11.5-21.2c4.9-11.3,17.2-18.9,29.5-18.4c12.3,0.5,23.9,9.2,27.8,20.9c2,6,2.5,13.1,7.1,17.4
					c4.9,4.6,12.6,4.3,19,2.5c6.4-1.8,12.7-4.7,19.4-4.6C254.3,116.4,260.3,125.2,259.9,131.8z"/>
				<path class="st3" d="M485.5,59.7H341.4c3.2-7.5,9.7-14.1,17.4-16.7c7.7-2.7,16.5-1.9,23.6,2c4.4,2.4,8.4,6,13.3,6.7
					c7.8,1.2,14.5-4.9,21.1-9.3C428,35,442,32.2,455.2,34.7C468.3,37.2,477.7,48.8,485.5,59.7z"/>
				<path class="st3" d="M678,130.7H543.5c0.5-4.3,3.3-9.4,6.8-12c3.5-2.6,8.2-3.5,12.4-2.6c3.3,0.7,6.4,2.5,9.8,2.8
					c5.3,0.5,10.3-2.7,14.1-6.4c3.8-3.8,7-8.2,11.3-11.3c5.7-4.1,13.2-5.5,19.9-3.8c6.8,1.7,12.7,6.5,15.8,12.8
					c1.3,2.7,2.1,5.6,3.5,8.3c1.4,2.7,3.5,5.2,6.3,6c4.8,1.4,9.5-2,14.3-3.4C665.2,119,674.2,124,678,130.7z"/>
			</g>
		</g>
		<g>
			<g>
				<ellipse class="st4" cx="366.3" cy="458.7" rx="223.1" ry="7.5"/>
				<g>
					<g>
						<g>
							<g>
								<path class="st5" d="M261.7,220h-14.2c-2.6,0-4.8,2.1-4.8,4.8v8.8c0,2.6,2.1,4.8,4.8,4.8H259v-3.5l0,0
									c3.5,0,6.8-1.4,9.2-3.8l1.7-1.7L261.7,220z"/>
								<polygon class="st5" points="261.7,220 269.9,229.4 305.3,221.2 300.4,208.1 								"/>
								<polygon class="st6" points="300.4,208.1 298.7,208.6 298.1,222.8 305.3,221.2 								"/>
								<path class="st7" d="M368.1,157.5L368.1,157.5c-4.7-3.7-11.4-3-15.2,1.5l-36.7,42.5l-6.6,2.2l6.2,16.5l3.5-0.8
									c5.5-1.2,10.5-4,14.4-8.1l35.7-37.5C373.8,169.1,373.2,161.5,368.1,157.5z"/>
								<path class="st8" d="M315.9,220.7l-0.2-0.5l-6.2-16.5l-0.6-1.6c-0.3-0.9-1.4-1.4-2.3-1.1l-6.1,2.3c-0.9,0.3-1.4,1.4-1.1,2.3
									l0.5,1.3l5.8,15.4l0.7,1.9c0.3,0.9,1.4,1.4,2.3,1.1l6.1-2.3C315.8,222.7,316.3,221.7,315.9,220.7z"/>
								<path class="st9" d="M355.2,160.8c3.4-4,9.1-5,13.7-2.6c-0.3-0.2-0.5-0.5-0.8-0.7h0c-4.7-3.7-11.4-3-15.2,1.5l-36.7,42.5
									l-6.6,2.2l1,2.6l7.4-2.5L355.2,160.8z"/>
							</g>
							<g>
								<path class="st10" d="M355.3,246l-76.4,20.3c-13.2,3.5-19.4,18.7-12.3,30.4l44.6,74.3l24.8-11l-35.7-67.8l72.6-15.2
									c14-2.9,22.3-17.5,17.6-31.1l0,0H355.3z"/>
								<g>
									<path class="st5" d="M332.7,365.1l-1.9-2.8l-14.1,6.3l3.3,6l15.7-4.4C334.8,368.5,333.8,366.8,332.7,365.1z"/>
									<path class="st11" d="M328.8,377.3l-1.3,3.3l1.8-1.2c0.7-0.5,1.5-0.8,2.4-0.8h8.2c-1.2-2.9-2.6-5.7-4.1-8.5l-15.7,4.4
										l0.9,1.7h7.2C328.7,376.3,329,376.8,328.8,377.3z"/>
									<path class="st10" d="M310.8,391.7h33.3l-0.6-2.4c-0.9-3.6-2.2-7.2-3.6-10.7h-8.2c-0.8,0-1.7,0.3-2.4,0.8l-1.8,1.2l1.3-3.3
										c0.2-0.5-0.2-1-0.7-1H321l-5.3,5c-2.4,2.3-5.6,3.5-8.9,3.5h-3.6c-3.5,0-6.6,2-8.2,4.9l6.9,1.2
										C304.9,391.4,307.8,391.7,310.8,391.7z"/>
									<path class="st11" d="M310.8,391.7c-3,0-5.9-0.3-8.8-0.8l-6.9-1.2c-0.7,1.2-1.1,2.6-1.1,4.1l10.5,1c1.7,0.2,3.3,0.2,5,0.2
										h35.5l-0.9-3.3H310.8z"/>
									<polygon class="st10" points="330.8,362.3 316.7,368.6 318.3,371.4 333.6,366.6 									"/>
								</g>
							</g>
						</g>
						<g>
							<g>
								<path class="st12" d="M237.4,239.2h-3.6l-9.3,32.9c-7.3,25.7-4.3,53.2,8.2,76.8l4.5,1.7L237.4,239.2z"/>
								<path class="st13" d="M224.5,272l9.3-32.9h-3.4l-19.1,70.8c-1.7,6.4-7.5,10.8-14.1,10.8c-0.5,0-0.9,0.4-0.9,0.9v13.5
									l36.3,13.7C220.2,325.2,217.2,297.7,224.5,272z"/>
							</g>
							<g>
								<circle class="st10" cx="193.9" cy="406.2" r="50.7"/>
								<circle class="st14" cx="193.9" cy="406.2" r="36.5"/>
								<circle class="st15" cx="193.9" cy="406.2" r="29.8"/>
								<path class="st16" d="M193.9,376.3c-5.6,0-10.9,1.6-15.4,4.3c2.1-0.5,4.2-0.8,6.5-0.8c14.6,0,26.4,11.8,26.4,26.4
									c0,14.6-11.8,26.4-26.4,26.4c-2.2,0-4.4-0.3-6.5-0.8c4.5,2.7,9.8,4.3,15.4,4.3c16.5,0,29.8-13.4,29.8-29.8
									C223.7,389.7,210.4,376.3,193.9,376.3z"/>
								<circle class="st16" cx="193.9" cy="406.2" r="13.2"/>
								
									<ellipse transform="matrix(0.7071 -0.7071 0.7071 0.7071 -230.4275 256.0603)" class="st12" cx="193.9" cy="406.2" rx="8.9" ry="8.9"/>
							</g>
							<g>
								<circle class="st10" cx="454.5" cy="406.2" r="50.7"/>
								<circle class="st14" cx="454.5" cy="406.2" r="36.5"/>
								<circle class="st15" cx="454.5" cy="406.2" r="29.8"/>
								<path class="st16" d="M454.5,376.3c-5.6,0-10.9,1.6-15.4,4.3c2.1-0.5,4.2-0.8,6.5-0.8c14.6,0,26.4,11.8,26.4,26.4
									c0,14.6-11.8,26.4-26.4,26.4c-2.2,0-4.4-0.3-6.5-0.8c4.5,2.7,9.8,4.3,15.4,4.3c16.5,0,29.8-13.4,29.8-29.8
									C484.4,389.7,471,376.3,454.5,376.3z"/>
								<circle class="st16" cx="454.5" cy="406.2" r="13.2"/>
								
									<ellipse transform="matrix(0.7071 -0.7071 0.7071 0.7071 -154.0849 440.3677)" class="st12" cx="454.5" cy="406.2" rx="8.9" ry="8.9"/>
							</g>
							<g>
								<g>
									<path class="st11" d="M196.3,339c26.1,0.8,48.5,19.1,55.4,44.3l1.1,4.1l1.2,0.6l-2.4-8.5c-7-25.2-29.3-43.5-55.4-44.3
										c-0.7,0-1.4,0-2,0c-11.3,0-22,2.9-31.5,8.4l1.7,2.9c9.1-4.9,19.2-7.5,29.8-7.5C195,338.9,195.6,339,196.3,339z"/>
									<path class="st17" d="M201.1,361.9l51.8,25.5l-1.1-4.1c-7-25.2-29.3-43.5-55.4-44.3c-0.7,0-1.4,0-2,0
										c-10.6,0-20.7,2.6-29.8,7.5l9.3,15.5H201.1z"/>
								</g>
								<path class="st13" d="M256.6,391.8h-24.2c-10.9,0-21.3-4.3-29-12l0,0c-7.7-7.7-18.1-12-29-12h-28.7l9.1-9.1
									c10.5-10.5,24.7-16.4,39.6-16.4h0c19.1,0,36.9,9.8,47.2,25.9L256.6,391.8z"/>
							</g>
							<path class="st13" d="M237.4,239.2l-9.3,32.9c-7.4,26.3-4.2,54.6,9.1,78.5l4.6,8.4c13.1,23.7,38.1,38.4,65.2,38.4h228.6
								l-8.2-29.7c-8.1-29.3-26.9-54.5-52.8-70.5l-14.8-9.2H332.6v5.6c0,3.7,2.4,7,5.8,8.1l0,0c13.6,4.6,23.4,16.6,25.1,30.8l0,0
								c2.7,22.2-14.6,41.8-37,41.8H308c-17.8,0-34.4-9.1-44-24.2l-8.6-13.6c-9.5-15-12.8-33.1-9.1-50.4l10-46.9H237.4z"/>
							<path class="st10" d="M459.8,287.9H322.4v-16.3h109.6c7.6,0,14.9,3.1,20.2,8.5L459.8,287.9z"/>
							<g>
								<path class="st17" d="M379.9,399.5h-61.7c-27.9,0-53.6-15.2-67.1-39.5l-4.6-8.4c-13.6-24.6-16.9-53.1-9.3-80.2
									c2.5-8.7,1.3-18.2-3.1-26.1c-0.6-1.1-0.2-2.5,0.9-3.1c1.1-0.6,2.5-0.2,3.1,0.9c5,8.9,6.3,19.7,3.6,29.6
									c-7.3,25.9-4.2,53.2,8.9,76.8l4.6,8.4c12.7,23,36.9,37.2,63.2,37.2h61.7c1.2,0,2.3,1,2.3,2.3S381.1,399.5,379.9,399.5z"/>
							</g>
							<path class="st12" d="M382.1,388.4h141.4l-2.2,2.2c-3.5,3.5-8.1,5.4-13,5.4H397C391.1,396,385.6,393.2,382.1,388.4
								L382.1,388.4z"/>
							<g>
								<circle class="st16" cx="443.9" cy="381.1" r="30.6"/>
								<g>
									<path class="st14" d="M443.9,404.6c-13,0-23.5-10.6-23.5-23.5s10.5-23.5,23.5-23.5c13,0,23.5,10.6,23.5,23.5
										S456.8,404.6,443.9,404.6z M443.9,360.1c-11.6,0-21,9.4-21,21s9.4,21,21,21s21-9.4,21-21S455.4,360.1,443.9,360.1z"/>
								</g>
								<g>
									<g>
										<path class="st14" d="M459.1,382.3h-30.5c-0.7,0-1.3-0.6-1.3-1.3s0.6-1.3,1.3-1.3h30.5c0.7,0,1.3,0.6,1.3,1.3
											S459.8,382.3,459.1,382.3z"/>
									</g>
									<g>
										<path class="st14" d="M456.5,377.3h-25.3c-0.7,0-1.3-0.6-1.3-1.3c0-0.7,0.6-1.3,1.3-1.3h25.3c0.7,0,1.3,0.6,1.3,1.3
											C457.7,376.8,457.2,377.3,456.5,377.3z"/>
									</g>
									<g>
										<path class="st14" d="M453,372.3h-18.2c-0.7,0-1.3-0.6-1.3-1.3c0-0.7,0.6-1.3,1.3-1.3H453c0.7,0,1.3,0.6,1.3,1.3
											C454.2,371.8,453.7,372.3,453,372.3z"/>
									</g>
									<g>
										<path class="st14" d="M448.8,367.3h-9.8c-0.7,0-1.3-0.6-1.3-1.3c0-0.7,0.6-1.3,1.3-1.3h9.8c0.7,0,1.3,0.6,1.3,1.3
											C450,366.8,449.5,367.3,448.8,367.3z"/>
									</g>
									<g>
										<path class="st14" d="M456.5,387.3h-25.3c-0.7,0-1.3-0.6-1.3-1.3c0-0.7,0.6-1.3,1.3-1.3h25.3c0.7,0,1.3,0.6,1.3,1.3
											C457.7,386.8,457.2,387.3,456.5,387.3z"/>
									</g>
									<g>
										<path class="st14" d="M453,392.3h-18.2c-0.7,0-1.3-0.6-1.3-1.3c0-0.7,0.6-1.3,1.3-1.3H453c0.7,0,1.3,0.6,1.3,1.3
											C454.2,391.8,453.7,392.3,453,392.3z"/>
									</g>
									<g>
										<path class="st14" d="M448.8,397.4h-9.8c-0.7,0-1.3-0.6-1.3-1.3c0-0.7,0.6-1.3,1.3-1.3h9.8c0.7,0,1.3,0.6,1.3,1.3
											C450,396.8,449.5,397.4,448.8,397.4z"/>
									</g>
								</g>
							</g>
							<g>
								<path class="st18" d="M476.9,314.9L476.9,314.9c-14.5-8.8-31.2-13.5-48.3-13.5h-5.7c-29,0-53.6,23.7-53.6,52.7
									c0,13.1,4.8,25.1,12.8,34.4H422h39.9h61.6l-5.4-19.3C511.7,346.5,497,327.1,476.9,314.9z"/>
								<path class="st13" d="M468.7,334.6L468.7,334.6c-10.7-6.5-22.9-9.9-35.3-9.9h-4.2c-21.2,0-39.2,17.4-39.2,38.6
									c0,9.6,3.5,18.4,9.4,25.2h29.2h29.2h45.1l-4-14.1C494.2,357.7,483.4,343.5,468.7,334.6z"/>
							</g>
							<g>
								<g>
									<path class="st14" d="M469.4,380.6h-47.6c-0.7,0-1.4-0.6-1.4-1.4s0.6-1.4,1.4-1.4h47.6c0.7,0,1.4,0.6,1.4,1.4
										S470.1,380.6,469.4,380.6z"/>
								</g>
								<g>
									<path class="st14" d="M467.9,375.3h-47.6c-0.7,0-1.4-0.6-1.4-1.4c0-0.7,0.6-1.4,1.4-1.4h47.6c0.7,0,1.4,0.6,1.4,1.4
										C469.2,374.7,468.6,375.3,467.9,375.3z"/>
								</g>
								<g>
									<path class="st14" d="M466.4,369.9h-47.6c-0.7,0-1.4-0.6-1.4-1.4c0-0.7,0.6-1.4,1.4-1.4h47.6c0.7,0,1.4,0.6,1.4,1.4
										C467.8,369.3,467.2,369.9,466.4,369.9z"/>
								</g>
								<g>
									<path class="st14" d="M465,364.6h-47.6c-0.7,0-1.4-0.6-1.4-1.4s0.6-1.4,1.4-1.4H465c0.7,0,1.4,0.6,1.4,1.4
										S465.7,364.6,465,364.6z"/>
								</g>
								<g>
									<path class="st14" d="M463.5,359.2h-47.6c-0.7,0-1.4-0.6-1.4-1.4c0-0.7,0.6-1.4,1.4-1.4h47.6c0.7,0,1.4,0.6,1.4,1.4
										C464.8,358.6,464.2,359.2,463.5,359.2z"/>
								</g>
							</g>
							<path class="st12" d="M332.6,287.9h127.2l0,0c-2.8,2.8-6.6,4.4-10.6,4.4H344.4C340.1,292.3,335.9,290.7,332.6,287.9
								L332.6,287.9z"/>
							<path class="st13" d="M256.3,239.2h-25.9h-12v-24.3h8.2c7.1,0,14,1.5,20.4,4.5l6.1,2.8c3.9,1.8,6,6.2,4.9,10.4L256.3,239.2z"
								/>
							<g>
								<rect x="214.5" y="214.9" class="st17" width="4" height="24.3"/>
								<rect x="212.4" y="214.9" class="st11" width="2" height="24.3"/>
							</g>
							<g>
								<g>
									<path class="st15" d="M519.7,284.4c0.5-0.5,0.5-1.4,0-1.9c-0.5-0.5-1.4-0.5-1.9,0l-11.3,11.3h3.8L519.7,284.4z"/>
									<path class="st11" d="M506.4,293.8l-18.4,18.4c-0.5,0.5-0.5,1.4,0,1.9c0.3,0.3,0.6,0.4,1,0.4c0.3,0,0.7-0.1,1-0.4
										l20.3-20.3H506.4z"/>
								</g>
								<g>
									<path class="st11" d="M451,299h-76.3c-1.2,0-2.3-1-2.3-2.3c0-1.2,1-2.3,2.3-2.3H451c5.4,0,10.6-2.1,14.4-6
										c4.7-4.7,11-7.3,17.6-7.3h74.2c1.2,0,2.3,1,2.3,2.3s-1,2.3-2.3,2.3H483c-5.4,0-10.6,2.1-14.4,6
										C463.9,296.4,457.6,299,451,299z"/>
								</g>
							</g>
						</g>
						<polygon class="st12" points="237.4,239.2 256.3,239.2 255.9,241.2 236.8,241.2 						"/>
						<g>
							<rect x="456" y="182.6" class="st19" width="133.3" height="98.6"/>
							<rect x="452.2" y="166.5" class="st19" width="141" height="16.1"/>
							<rect x="456" y="182.6" class="st20" width="133.3" height="7.8"/>
							<g>
								<text transform="matrix(1 0 0 1 470.0621 224.4719)" class="st21 st22 st23">DELIVERY</text>
								<text transform="matrix(1 0 0 1 470.0621 247.1067)" class="st21 st22 st23">SERVICE</text>
							</g>
							<g>
								<polygon class="st21" points="472.7,202.2 472.1,204.7 522.7,204.7 540.8,202.2 								"/>
								<polygon class="st21" points="473.6,198.2 473,200.7 561.8,200.7 579.9,198.2 								"/>
								<polygon class="st21" points="472.7,256.8 472.1,259.3 522.7,259.3 540.8,256.8 								"/>
								<polygon class="st21" points="473.6,252.8 473,255.3 561.8,255.3 579.9,252.8 								"/>
							</g>
						</g>
						<g>
							<g>
								<path class="st24" d="M355.3,246l-63.7,19.1c-14.1,4.2-20.5,20.6-12.9,33.2l43.7,72.8l24.8-11l-35.7-67.8l72.6-15.2
									c14-2.9,22.3-17.5,17.6-31.1l0,0H355.3z"/>
								<g>
									<path class="st25" d="M344,365.1l-1.9-2.8l-14.1,6.3l3.3,6l15.7-4.4C346.1,368.5,345.1,366.8,344,365.1z"/>
									<path class="st11" d="M340.1,377.3l-1.3,3.3l1.8-1.2c0.7-0.5,1.5-0.8,2.4-0.8h8.2c-1.2-2.9-2.6-5.7-4.1-8.5l-15.7,4.4
										l0.9,1.7h7.2C339.9,376.3,340.3,376.8,340.1,377.3z"/>
									<path class="st10" d="M322,391.7h33.3l-0.6-2.4c-0.9-3.6-2.2-7.2-3.6-10.7h-8.2c-0.8,0-1.7,0.3-2.4,0.8l-1.8,1.2l1.3-3.3
										c0.2-0.5-0.2-1-0.7-1h-7.2l-5.3,5c-2.4,2.3-5.6,3.5-8.9,3.5h-3.6c-3.5,0-6.6,2-8.2,4.9l6.9,1.2
										C316.1,391.4,319.1,391.7,322,391.7z"/>
									<path class="st11" d="M322,391.7c-3,0-5.9-0.3-8.8-0.8l-6.9-1.2c-0.7,1.2-1.1,2.6-1.1,4.1l10.5,1c1.7,0.2,3.3,0.2,5,0.2
										h35.5l-0.9-3.3H322z"/>
									<polygon class="st10" points="342.1,362.3 328,368.6 329.5,371.4 344.9,366.6 									"/>
								</g>
							</g>
							<g>
								<path class="st25" d="M341.2,133.2l-1.9-10.9c-0.6-3.7-3.8-6.3-7.6-6.3h-11l1,5.2c0.7,3.8,0.6,7.6-0.2,11.4l-0.5,2.1
									c-0.2,0.9,0.5,1.8,1.4,1.8h2.2c2.8,10.3,15.3,14.6,24,8l13.6-10.5L355,139C349.7,142.7,342.3,139.6,341.2,133.2z"/>
								<path class="st5" d="M320,112.2l0.7,3.8l0,0h11c3.7,0,6.9,2.7,7.6,6.3l1.9,10.9c1.1,6.4,8.5,9.5,13.8,5.7l7.2-5.1l0,0l0,0
									v-21.7H320z"/>
								<g>
									<polygon class="st10" points="362.2,133.9 348.6,144.4 350.4,149.6 362.2,133.9 									"/>
									<polygon class="st25" points="371.8,148.4 362.2,133.9 350.4,149.6 353.5,158.5 									"/>
								</g>
								<path class="st10" d="M328.9,124.6c0.2,1.3-0.2,2.4-0.9,2.5c-0.7,0.1-1.4-0.8-1.6-2.1c-0.2-1.3,0.2-2.4,0.9-2.5
									C328,122.4,328.7,123.3,328.9,124.6z"/>
								<g>
									<path class="st10" d="M325.7,120.2c1.1-0.6,2.4-0.6,3.5,0.2c1.1,0.7,2-1,1-1.7c-1.6-1.1-3.7-1.1-5.5-0.2
										C323.6,119.1,324.6,120.8,325.7,120.2L325.7,120.2z"/>
								</g>
								<g>
									<g>
										<path class="st11" d="M328.4,132.2l2.2,0.8c3.2,1.1,6.7,1.2,10,0.3l5.5-1.5l-1.3-2.6l-4.2,1.2c-3.3,0.9-6.8,0.8-10-0.3
											l-2.2-0.8c-1.9-0.7-3.9-1.2-6-1.5l-0.8-0.1l-0.7,2.9l1.5,0.2C324.4,131.1,326.4,131.6,328.4,132.2z"/>
										<path class="st26" d="M346,131.8l-5.5,1.5c-3.3,0.9-6.8,0.8-10-0.3l-2.2-0.8c-1.9-0.7-3.9-1.2-6-1.5l-1.5-0.2l-0.2,0.9
											c-0.4,1.6-0.3,3.4,0.3,4.9l1.2,3.4c2.2,6,7.7,10.1,14,10.4h0c3.9,0.2,7.8-1,10.9-3.5l4.6-3.7L346,131.8z"/>
									</g>
									<path class="st27" d="M340.7,130.3l0.5,2.9c0.8,4.7,5,7.6,9.3,7.3l-5.7-11.4L340.7,130.3z"/>
								</g>
								<g>
									<path class="st24" d="M348.6,136.3l-4.2,11.9c-0.1,0.4,0.2,0.8,0.6,0.7l0,0c3.1-0.4,5.9-2.2,7.4-4.9l5.3-9.2L348.6,136.3z"
										/>
									<g>
										<path class="st13" d="M344.6,118.2l2.3,13c0.4,2.2,2.7,3.5,4.8,2.8l22.6-8.4v-16.2c0-16.6-13.5-30.1-30.1-30.1l0,0
											c-16.3,0-29.6,13-30.1,29.2H333C338.7,108.5,343.6,112.6,344.6,118.2z"/>
										<g>
											<g>
												<path class="st11" d="M362.8,103.8c-1.5,0-2.9-0.8-3.6-2.2c-3-5.6-8.7-9.2-15.1-9.2c-2.2,0-4.1-1.8-4.1-4.1
													c0-2.2,1.8-4.1,4.1-4.1c9.4,0,17.9,5.2,22.3,13.5c1,2,0.3,4.4-1.7,5.5C364.1,103.6,363.5,103.8,362.8,103.8z"/>
											</g>
											<g>
												<path class="st11" d="M331.7,96.4c-1.3,0-2.5-0.6-3.3-1.7c-1.3-1.8-0.9-4.3,0.9-5.7l0.2-0.1c1.8-1.3,4.4-0.9,5.7,0.9
													c1.3,1.8,0.9,4.4-0.9,5.7l-0.1,0.1C333.4,96.2,332.6,96.4,331.7,96.4z"/>
											</g>
										</g>
										<path class="st12" d="M351.7,134c-2.1,0.8-4.4-0.5-4.8-2.8l-2.3-13c-1-5.6-5.9-9.7-11.5-9.7h-18.9c0,0.3,0,0.6,0,0.9v2.8
											H332c4.4,0,8.1,3.1,8.9,7.5l2.3,12.9c0.8,4.6,5.7,7.2,10,5.4l18.9-8.3c1.3-0.6,2.2-1.9,2.2-3.3v-0.7L351.7,134z"/>
									</g>
								</g>
							</g>
							<g>
								<g>
									<path class="st9" d="M349.8,239.1l5.5-24.2l-7.9-43.5c-0.9-5.2,1.5-10.4,6.1-12.9l18.3-10.1c2.4-1.3,5.4-1,7.4,0.8v0
										c15,12.9,24.4,31.1,26.2,50.9l3.4,38.2c0.4,4.2-2.9,7.8-7.1,7.8l0,0h-46.4l0,0C351.7,246,349,242.6,349.8,239.1z"/>
									<path class="st7" d="M377.3,166.5l0.2,0.6c1.9,7.4,0.5,15.3-3.8,21.5l-18.3,26.3l-3.7-20.4L377.3,166.5z"/>
								</g>
								<g>
									<g>
										<polygon class="st9" points="351.8,153.5 346.8,156.1 351.8,161.6 353.5,158.5 										"/>
										<polygon class="st7" points="346.8,156.1 345.7,165.4 350.8,160.5 										"/>
									</g>
									<polygon class="st28" points="374.7,147.6 369.4,142.9 350.4,153.2 353,164.2 									"/>
								</g>
							</g>
							<g>
								<g>
									<path class="st25" d="M267.6,224.6h-14.2c-2.6,0-4.8,2.1-4.8,4.8v8.8c0,2.6,2.1,4.8,4.8,4.8h11.5v-3.5l0,0
										c3.5,0,6.8-1.4,9.2-3.8l1.7-1.7L267.6,224.6z"/>
									<polygon class="st25" points="267.6,224.6 275.8,233.9 311.1,225.7 306.3,212.6 									"/>
									<polygon class="st5" points="306.3,212.6 304.5,213.1 304,227.4 311.1,225.7 									"/>
									<path class="st9" d="M373.9,162L373.9,162c-4.7-3.7-11.4-3-15.2,1.5L322,206l-6.6,2.2l6.2,16.5l3.5-0.8
										c5.5-1.2,10.5-4,14.4-8.1l35.7-37.5C379.6,173.7,379.1,166.1,373.9,162z"/>
									<path class="st7" d="M321.8,225.3l-0.2-0.5l-6.2-16.5l-0.6-1.6c-0.3-0.9-1.4-1.4-2.3-1.1l-6.1,2.3
										c-0.9,0.3-1.4,1.4-1.1,2.3l0.5,1.3l5.8,15.4l0.7,1.9c0.3,0.9,1.4,1.4,2.3,1.1l6.1-2.3C321.6,227.2,322.1,226.2,321.8,225.3
										z"/>
									<path class="st28" d="M361,165.3c3.4-4,9.1-5,13.7-2.6c-0.3-0.2-0.5-0.5-0.8-0.7l0,0c-4.7-3.7-11.4-3-15.2,1.5L322,206
										l-6.6,2.2l1,2.6l7.4-2.5L361,165.3z"/>
								</g>
								<g>
									<path class="st10" d="M269.5,239.4c1.1-2,3.5-2.7,5.5-1.6l0,0c-0.1-0.1-0.2-0.1-0.2-0.2l-9.1-5c-2-1.1-4.4-0.4-5.5,1.6
										c-1.1,2-0.4,4.4,1.6,5.5l9.1,5C269.1,243.6,268.5,241.3,269.5,239.4z"/>
									<path class="st14" d="M272.8,245.3c1.4,0,2.8-0.8,3.6-2.1c1-1.9,0.4-4.2-1.4-5.3l0,0c-2-1.1-4.4-0.4-5.5,1.6
										c-1,1.9-0.4,4.2,1.4,5.3l0,0C271.5,245.1,272.2,245.3,272.8,245.3z"/>
								</g>
							</g>
						</g>
					</g>
					<g>
						<path class="st3" d="M527.3,439.1c1.9-6.1,2.8-8.6,15.3-9.7c3.4-0.3,6.8,0.8,10.2,0.5c3.4-0.4,7-2.7,7.1-6.2
							c0.1-3.7-3.9-6.9-2.8-10.4c0.9-2.6,4.1-3.4,6.8-3.3c2.7,0.2,5.5,0.9,8,0.1c3.1-1.1,5.1-4.4,5.4-7.7s-0.7-6.6-1.8-9.7
							c-1.1-3.1-2.4-6.2-2.7-9.5c-0.6-7,3.4-13.7,8.7-18.4c7.3-6.4,17.1-9.8,26.8-9.2c9.5,0.6,21.1,4.2,26.5,12.5
							c3.2,4.9,4.3,11.1,3.1,16.8c-0.5,2.4-1.4,4.9-0.7,7.3c1,3.5,4.8,5.2,8.1,6.5c3.4,1.3,7.1,3.2,7.8,6.7c0.7,3.2-1.7,6.4-4.5,8
							s-6.1,2.2-9.2,3.2c-3.1,1-6.3,2.7-7.7,5.6c-1.2,2.5-0.8,5.5-1.9,8.1c-1.7,4.4-7.1,6.5-11.7,5.9c-4.7-0.6-8.8-3.1-12.8-5.8
							c-1.9-1.3-3.9-2.6-6.2-3.4s-4.8-0.7-6.8,0.6c-2.5,1.6-3.8,5-6.6,5.6c-2.8,0.6-5.2-1.8-7.3-3.7c-2.1-1.9-5.5-3.5-7.6-1.5
							c-0.9,0.8-1.2,2.1-1.8,3.2c-2.2,4.4-7.9,5.8-12.8,5.3c-4.9-0.5-9.5-2.6-14.4-3.1C537.1,433,528.5,435.1,527.3,439.1z"/>
						<path class="st3" d="M647.1,426.2c4.2-1.4,9.1-0.1,12.2,3.1c1.9,2.1,3,5.4,1.4,7.7c-1.4,1.9-4.1,2.4-6.4,1.9
							c-2.3-0.5-4.4-1.7-6.7-2.4c-2.3-0.7-4.9-0.9-6.8,0.5c-0.5,0.4-0.9,0.8-1.4,1c-3.3,1.5,0.3-4.8,0.8-5.6
							C641.5,429.6,644,427.2,647.1,426.2z"/>
						<path class="st3" d="M679.7,391.4c2.1-0.5,4.7,0.1,5.8,2c1.3,2.2,0.1,5.2-2,6.7c-2.6,1.8-11.7,3.8-13.6-0.2
							C668.4,396.7,677,392,679.7,391.4z"/>
						<path class="st3" d="M648.8,385.8c0.5,0.9,1.4,1.4,2.4,1.6c1,0.2,2,0.1,3,0c1.8-0.2,3.6-0.4,5.1-1.3c1.5-0.9,2.7-2.7,2.3-4.4
							C660.2,375.2,645.6,380,648.8,385.8z"/>
						<path class="st3" d="M563.2,350.5c-1.6,0.7-3,2.2-2.9,3.9c0.1,1.3,1,2.4,2.1,3c1.1,0.6,2.4,0.8,3.7,0.9
							c1.6,0.1,3.4-0.1,4.5-1.2c0.8-0.7,1.2-1.7,1.8-2.5c1-1.5,2.6-2.7,4.4-3.2c1-0.3,2.6-0.6,2.7-2c0-1.4-1.8-2.3-3-2.6
							c-1.1-0.2-2.1,0.2-3,0.6c-1.5,0.7-3,1.3-4.6,1.7C567,349.6,565,349.7,563.2,350.5z"/>
					</g>
				</g>
			</g>
			<g>
				<linearGradient id="SVGID_1_" gradientUnits="userSpaceOnUse" x1="336.0009" y1="94.9815" x2="484.1097" y2="94.9815">
					<stop  offset="0" style="stop-color:#7FCBD0;stop-opacity:0"/>
					<stop  offset="0.5443" style="stop-color:#7FCBD0"/>
					<stop  offset="0.9884" style="stop-color:#7FCBD0;stop-opacity:0"/>
				</linearGradient>
				<rect x="336" y="93.5" class="st29" width="148.1" height="2.9"/>
				<linearGradient id="SVGID_2_" gradientUnits="userSpaceOnUse" x1="353.5013" y1="100.7914" x2="501.6101" y2="100.7914">
					<stop  offset="0" style="stop-color:#7FCBD0;stop-opacity:0"/>
					<stop  offset="0.5443" style="stop-color:#7FCBD0"/>
					<stop  offset="0.9884" style="stop-color:#7FCBD0;stop-opacity:0"/>
				</linearGradient>
				<rect x="353.5" y="99.3" class="st30" width="148.1" height="2.9"/>
				<linearGradient id="SVGID_3_" gradientUnits="userSpaceOnUse" x1="232.5962" y1="321.7545" x2="380.705" y2="321.7545">
					<stop  offset="0" style="stop-color:#7FCBD0;stop-opacity:0"/>
					<stop  offset="0.5443" style="stop-color:#7FCBD0"/>
					<stop  offset="0.9884" style="stop-color:#7FCBD0;stop-opacity:0"/>
				</linearGradient>
				<rect x="232.6" y="320.3" class="st31" width="148.1" height="2.9"/>
				<linearGradient id="SVGID_4_" gradientUnits="userSpaceOnUse" x1="250.0966" y1="327.5645" x2="398.2054" y2="327.5645">
					<stop  offset="0" style="stop-color:#7FCBD0;stop-opacity:0"/>
					<stop  offset="0.5443" style="stop-color:#7FCBD0"/>
					<stop  offset="0.9884" style="stop-color:#7FCBD0;stop-opacity:0"/>
				</linearGradient>
				<rect x="250.1" y="326.1" class="st32" width="148.1" height="2.9"/>
				<linearGradient id="SVGID_5_" gradientUnits="userSpaceOnUse" x1="355.4316" y1="164.2221" x2="503.5404" y2="164.2221">
					<stop  offset="0" style="stop-color:#7FCBD0;stop-opacity:0"/>
					<stop  offset="0.5443" style="stop-color:#7FCBD0"/>
					<stop  offset="0.9884" style="stop-color:#7FCBD0;stop-opacity:0"/>
				</linearGradient>
				<rect x="355.4" y="162.8" class="st33" width="148.1" height="2.9"/>
				<linearGradient id="SVGID_6_" gradientUnits="userSpaceOnUse" x1="363.6405" y1="158.4578" x2="566.8922" y2="158.4578">
					<stop  offset="0" style="stop-color:#7FCBD0;stop-opacity:0"/>
					<stop  offset="0.5443" style="stop-color:#7FCBD0"/>
					<stop  offset="0.9884" style="stop-color:#7FCBD0;stop-opacity:0"/>
				</linearGradient>
				<rect x="363.6" y="157" class="st34" width="203.3" height="2.9"/>
				<linearGradient id="SVGID_7_" gradientUnits="userSpaceOnUse" x1="340.9439" y1="152.0885" x2="544.1957" y2="152.0885">
					<stop  offset="0" style="stop-color:#7FCBD0;stop-opacity:0"/>
					<stop  offset="0.5443" style="stop-color:#7FCBD0"/>
					<stop  offset="0.9884" style="stop-color:#7FCBD0;stop-opacity:0"/>
				</linearGradient>
				<rect x="340.9" y="150.6" class="st35" width="203.3" height="2.9"/>
				<linearGradient id="SVGID_8_" gradientUnits="userSpaceOnUse" x1="251.6736" y1="233.0984" x2="399.7824" y2="233.0984">
					<stop  offset="0" style="stop-color:#7FCBD0;stop-opacity:0"/>
					<stop  offset="0.5443" style="stop-color:#7FCBD0"/>
					<stop  offset="0.9884" style="stop-color:#7FCBD0;stop-opacity:0"/>
				</linearGradient>
				<rect x="251.7" y="231.6" class="st36" width="148.1" height="2.9"/>
				<linearGradient id="SVGID_9_" gradientUnits="userSpaceOnUse" x1="259.8824" y1="227.3342" x2="463.1342" y2="227.3342">
					<stop  offset="0" style="stop-color:#7FCBD0;stop-opacity:0"/>
					<stop  offset="0.5443" style="stop-color:#7FCBD0"/>
					<stop  offset="0.9884" style="stop-color:#7FCBD0;stop-opacity:0"/>
				</linearGradient>
				<rect x="259.9" y="225.9" class="st37" width="203.3" height="2.9"/>
				<linearGradient id="SVGID_10_" gradientUnits="userSpaceOnUse" x1="237.1859" y1="220.9649" x2="440.4376" y2="220.9649">
					<stop  offset="0" style="stop-color:#7FCBD0;stop-opacity:0"/>
					<stop  offset="0.5443" style="stop-color:#7FCBD0"/>
					<stop  offset="0.9884" style="stop-color:#7FCBD0;stop-opacity:0"/>
				</linearGradient>
				<rect x="237.2" y="219.5" class="st38" width="203.3" height="2.9"/>
				<linearGradient id="SVGID_11_" gradientUnits="userSpaceOnUse" x1="485.4048" y1="320.558" x2="633.5136" y2="320.558">
					<stop  offset="0" style="stop-color:#7FCBD0;stop-opacity:0"/>
					<stop  offset="0.5443" style="stop-color:#7FCBD0"/>
					<stop  offset="0.9884" style="stop-color:#7FCBD0;stop-opacity:0"/>
				</linearGradient>
				<rect x="485.4" y="319.1" class="st39" width="148.1" height="2.9"/>
				<linearGradient id="SVGID_12_" gradientUnits="userSpaceOnUse" x1="450.5638" y1="314.7938" x2="653.8155" y2="314.7938">
					<stop  offset="0" style="stop-color:#7FCBD0;stop-opacity:0"/>
					<stop  offset="0.5443" style="stop-color:#7FCBD0"/>
					<stop  offset="0.9884" style="stop-color:#7FCBD0;stop-opacity:0"/>
				</linearGradient>
				<rect x="450.6" y="313.3" class="st40" width="203.3" height="2.9"/>
				<linearGradient id="SVGID_13_" gradientUnits="userSpaceOnUse" x1="427.8672" y1="308.4245" x2="631.119" y2="308.4245">
					<stop  offset="0" style="stop-color:#7FCBD0;stop-opacity:0"/>
					<stop  offset="0.5443" style="stop-color:#7FCBD0"/>
					<stop  offset="0.9884" style="stop-color:#7FCBD0;stop-opacity:0"/>
				</linearGradient>
				<rect x="427.9" y="307" class="st41" width="203.3" height="2.9"/>
			</g>
		</g>
	</g>
</g>
</svg>
